# xmcd CD database file
#
# Track frame offsets:
#	150
#	12202
#	26983
#	45199
#	66471
#	83396
#	109978
#
# Disc length: 1676 seconds
#
# Revision: 2
# Processed by: cddbd v1.5.2PL0 Copyright (c) Steve Scherf et al.
# Submitted via: CDex 2.17
#
DISCID=4f068a07
DTITLE=Sunrise Avenue - Out Of Style - CD2
DYEAR=2011
DGENRE=Rock
TTITLE0=That's All [2010 Studio Demo]
TTITLE1=Somebody Will Find You [2009 Version]
TTITLE2=Hollywood Hills [Special Version]
TTITLE3=Out Of Tune [Special Version]
TTITLE4=Stormy End [Special Version]
TTITLE5=Somebody Help Me [Special Version]
TTITLE6=On The Way To Wonderland [Special Version]
EXTD=YEAR: 2011
EXTT0=
EXTT1=
EXTT2=
EXTT3=
EXTT4=
EXTT5=
EXTT6=
PLAYORDER=
